# File created by Blade
# Date/Time:  Wed Jan 21 16:27:48 2015
#---------------------------------------------------------
:version 1.10
:name HOM
:units
  mass 1.0
  length 1.000000
  angle deg
:documentation
     Acclaim Skeleton File
:root
   axis xyz
   order TX TY TZ RX RY RZ
   position 0.000000 0.000000 0.000000
   orientation 0 0 0
:bonedata
   begin
      id 1
      name Spine_dum
      direction 0.000000 1.000000 0.000000
      length 7.067664
      axis 0.0 0.0 0.0 xyz
   end
   begin
      id 2
      name LeftUpLeg_dum
      direction 1.000000 0.000000 0.000000
      length 4.013002
      axis 0.0 0.0 0.0 xyz
   end
   begin
      id 3
      name RightUpLeg_dum
      direction -1.000000 0.000000 0.000000
      length 4.013002
      axis 0.0 0.0 0.0 xyz
   end
   begin
      id 4
      name Spine
      direction 0.000000 1.000000 0.000000
      length 0.000000
      axis 0.0 0.0 0.0 xyz
      dof rx ry rz
   end
   begin
      id 5
      name Spine_dum1
      direction 0.000000 1.000000 0.000000
      length 15.039886
      axis 0.0 0.0 0.0 xyz
   end
   begin
      id 6
      name Spine_dum2
      direction 0.000000 1.000000 0.000000
      length 10.530368
      axis 0.0 0.0 0.0 xyz
   end
   begin
      id 7
      name Spine_dum3
      direction 0.000000 1.000000 0.000000
      length 10.530368
      axis 0.0 0.0 0.0 xyz
   end
   begin
      id 8
      name Head
      direction 0.000000 1.000000 0.000000
      length 4.527550
      axis 0.0 0.0 0.0 xyz
      dof rx ry rz
   end
   begin
      id 9
      name LeftShoulder
      direction 1.000000 0.000000 0.000000
      length 7.028855
      axis 0.0 0.0 -90.0 xyz
      dof rx ry rz
   end
   begin
      id 10
      name LeftArm
      direction 1.000000 0.000000 0.000000
      length 10.797705
      axis 0.0 0.0 -90.0 xyz
      dof rx ry rz
   end
   begin
      id 11
      name LeftForeArm
      direction 1.000000 0.000000 0.000000
      length 7.907442
      axis 0.0 0.0 -90.0 xyz
      dof ry rz rx
   end
   begin
      id 12
      name LeftHand
      direction 0.000000 0.000000 0.000000
      length 0.000000
      axis 0.0 0.0 -90.0 xyz
      dof rx ry rz
   end
   begin
      id 13
      name LeftHand_dum1
      direction 0.000000 0.000000 0.000000
      length 0.000000
      axis 0.0 0.0 -90.0 xyz
   end
   begin
      id 14
      name LeftHand_dum2
      direction 1.000000 0.000000 0.000000
      length 3.937000
      axis 0.0 0.0 -90.0 xyz
   end
   begin
      id 15
      name LeftHandThumb1
      direction 0.000000 0.000000 1.000000
      length 3.937000
      axis 0.0 0.0 -90.0 xyz
      dof rx rz ry
   end
   begin
      id 16
      name RightShoulder
      direction -1.000000 0.000000 0.000000
      length 7.028855
      axis 0.0 0.0 90.0 xyz
      dof rx ry rz
   end
   begin
      id 17
      name RightArm
      direction -1.000000 0.000000 0.000000
      length 10.797705
      axis 0.0 0.0 90.0 xyz
      dof rx ry rz
   end
   begin
      id 18
      name RightForeArm
      direction -1.000000 0.000000 0.000000
      length 7.907442
      axis 0.0 0.0 90.0 xyz
      dof ry rz rx
   end
   begin
      id 19
      name RightHand
      direction 0.000000 0.000000 0.000000
      length 0.000000
      axis 0.0 0.0 90.0 xyz
      dof rx ry rz
   end
   begin
      id 20
      name RightHand_dum1
      direction 0.000000 0.000000 0.000000
      length 0.000000
      axis 0.0 0.0 90.0 xyz
   end
   begin
      id 21
      name RightHand_dum2
      direction -1.000000 0.000000 0.000000
      length 3.937000
      axis 0.0 0.0 90.0 xyz
   end
   begin
      id 22
      name RightHandThumb1
      direction 0.000000 0.000000 1.000000
      length 3.937000
      axis 0.0 0.0 90.0 xyz
      dof rx rz ry
   end
   begin
      id 23
      name LeftUpLeg
      direction 0.000000 -1.000000 0.000000
      length 16.899758
      axis 0.0 0.0 0.0 xyz
      dof rx ry rz
   end
   begin
      id 24
      name LeftLeg
      direction 0.000000 -1.000000 0.000000
      length 17.389183
      axis 0.0 0.0 0.0 xyz
      dof rx ry rz
   end
   begin
      id 25
      name LeftFoot
      direction 0.000000 -0.258819 0.965926
      length 4.924528
      axis 15.0 0.0 0.0 xyz
      dof rx ry rz
   end
   begin
      id 26
      name LeftToeBase
      direction 0.000000 0.000000 1.000000
      length 2.952750
      axis 0.0 0.0 0.0 xyz
      dof rx ry rz
   end
   begin
      id 27
      name RightUpLeg
      direction 0.000000 -1.000000 0.000000
      length 16.899758
      axis 0.0 0.0 0.0 xyz
      dof rx ry rz
   end
   begin
      id 28
      name RightLeg
      direction 0.000000 -1.000000 0.000000
      length 17.389183
      axis 0.0 0.0 0.0 xyz
      dof rx ry rz
   end
   begin
      id 29
      name RightFoot
      direction 0.000000 -0.258819 0.965926
      length 4.924528
      axis 15.0 0.0 0.0 xyz
      dof rx ry rz
   end
   begin
      id 30
      name RightToeBase
      direction 0.000000 0.000000 1.000000
      length 2.952750
      axis 0.0 0.0 0.0 xyz
      dof rx ry rz
   end
:hierarchy
   begin
      root Spine_dum LeftUpLeg_dum RightUpLeg_dum
      Spine_dum Spine
      LeftUpLeg_dum LeftUpLeg
      RightUpLeg_dum RightUpLeg
      Spine Spine_dum1 Spine_dum2 Spine_dum3
      Spine_dum1 Head
      Spine_dum2 LeftShoulder
      Spine_dum3 RightShoulder
      LeftShoulder LeftArm
      LeftArm LeftForeArm
      LeftForeArm LeftHand
      LeftHand LeftHand_dum1 LeftHand_dum2
      LeftHand_dum1 LeftHandThumb1
      RightShoulder RightArm
      RightArm RightForeArm
      RightForeArm RightHand
      RightHand RightHand_dum1 RightHand_dum2
      RightHand_dum1 RightHandThumb1
      LeftUpLeg LeftLeg
      LeftLeg LeftFoot
      LeftFoot LeftToeBase
      RightUpLeg RightLeg
      RightLeg RightFoot
      RightFoot RightToeBase
   end

# File created by Blade
# Date/Time:  Wed Jan 21 16:27:40 2015
# Frame Rate: 120.000 fps
#------------------------------------------------------
:FULLY-SPECIFIED
:DEGREES
196
root 16.752861 35.581828 -21.257546 -178.790728 34.355936 -176.928669
Spine 13.526720 -4.347577 -0.976808
Head 30.153108 -21.725996 9.095638
LeftShoulder -7.748220 -21.907715 -0.847313
LeftArm -9.614873 12.796154 -78.533828
LeftForeArm -3.405153 -0.000000 5.228035
LeftHand -1.015768 -0.000000 2.278759
LeftHandThumb1 -26.253704 0.000000 33.147579
RightShoulder -13.710903 -16.143002 13.326949
RightArm 14.991621 1.302793 72.000049
RightForeArm -26.808813 -0.000000 19.003529
RightHand -4.038191 -0.000000 6.356143
RightHandThumb1 -24.326973 -0.000000 -32.862282
LeftUpLeg 7.072807 30.997413 -2.484805
LeftLeg -4.961717 -0.000000 0.000000
LeftFoot -25.443019 40.821356 -13.792404
LeftToeBase 23.920609 -0.000000 -0.000000
RightUpLeg -17.597944 -25.656245 8.198265
RightLeg 15.916884 -0.000000 -0.000000
RightFoot -24.759647 -36.370006 19.220137
RightToeBase 6.652860 -0.000000 -0.000000
197
root 16.766225 35.582366 -21.256544 -178.663336 35.174095 -176.834243
Spine 13.661567 -4.457226 -0.908244
Head 30.173025 -21.605239 9.020520
LeftShoulder -7.670631 -21.972948 -0.874837
LeftArm -9.495031 12.949748 -78.527255
LeftForeArm -3.563519 -0.000000 5.390375
LeftHand -0.963372 0.000000 2.886396
LeftHandThumb1 -26.253704 0.000000 33.147579
RightShoulder -13.738887 -16.198749 13.343428
RightArm 15.020165 0.974224 72.005056
RightForeArm -26.922248 -0.000000 18.869403
RightHand -3.965966 -0.000000 6.420902
RightHandThumb1 -24.326973 -0.000000 -32.862282
LeftUpLeg 6.998065 31.327250 -2.464412
LeftLeg -4.855120 -0.000000 0.000000
LeftFoot -25.687946 41.206789 -14.023505
LeftToeBase 23.856051 -0.000000 -0.000000
RightUpLeg -17.616615 -26.334833 8.756662
RightLeg 15.206574 -0.000000 -0.000000
RightFoot -24.838160 -36.941124 19.162848
RightToeBase 6.726584 -0.000000 -0.000000
198
root 16.783832 35.582005 -21.257371 -178.589651 35.978619 -176.773885
Spine 13.852188 -4.565467 -0.903144
Head 30.152033 -21.490668 9.057651
LeftShoulder -7.634456 -21.907265 -0.872872
LeftArm -9.200970 13.041928 -78.459610
LeftForeArm -3.762891 -0.000000 5.510235
LeftHand -0.794025 -0.000000 2.811003
LeftHandThumb1 -26.253704 0.000000 33.147579
RightShoulder -13.812981 -16.406055 13.438976
RightArm 15.277061 0.565079 71.927483
RightForeArm -26.974750 -0.000000 18.681008
RightHand -3.832214 -0.000000 6.607338
RightHandThumb1 -24.326973 -0.000000 -32.862282
LeftUpLeg 6.961127 31.703882 -2.433521
LeftLeg -4.718303 -0.000000 0.000000
LeftFoot -25.914805 41.492562 -14.229451
LeftToeBase 23.846890 -0.000000 -0.000000
RightUpLeg -17.537357 -26.817834 9.195789
RightLeg 14.501148 -0.000000 -0.000000
RightFoot -24.682567 -37.452589 18.918326
RightToeBase 6.416118 -0.000000 -0.000000
199
root 16.798926 35.580231 -21.258418 -178.513005 36.803812 -176.748603
Spine 14.029249 -4.646623 -0.920005
Head 30.122359 -21.359150 9.038909
LeftShoulder -7.566763 -21.945750 -0.870080
LeftArm -9.062100 13.115802 -78.397854
LeftForeArm -3.736345 0.000000 5.668903
LeftHand -0.752047 -0.000000 3.009755
LeftHandThumb1 -26.253704 0.000000 33.147579
RightShoulder -13.793922 -16.445362 13.502667
RightArm 15.236551 -0.258719 71.650523
RightForeArm -26.651414 -0.000000 18.776726
RightHand -3.907049 -0.000000 6.851590
RightHandThumb1 -24.326973 -0.000000 -32.862282
LeftUpLeg 6.867401 32.088323 -2.454611
LeftLeg -4.524613 -0.000000 0.000000
LeftFoot -26.202810 41.793000 -14.496473
LeftToeBase 23.761770 -0.000000 -0.000000
RightUpLeg -17.450140 -27.152257 9.572156
RightLeg 13.796316 -0.000000 -0.000000
RightFoot -24.574255 -37.837367 18.776223
RightToeBase 6.185148 -0.000000 -0.000000
